<?xml version="1.0" standalone="no"?><!DOCTYPE svg PUBLIC "-//W3C//DTD SVG 1.1//EN" "http://www.w3.org/Graphics/SVG/1.1/DTD/svg11.dtd"><svg t="1515579956204" class="icon" style="" viewBox="0 0 1620 1024" version="1.1" xmlns="http://www.w3.org/2000/svg" p-id="2030" xmlns:xlink="http://www.w3.org/1999/xlink" width="316.40625" height="200"><defs><style type="text/css">@font-face { font-family: uc-nexus-iconfont; src: url("chrome-extension://pogijhnlcfmcppgimcaccdkmbedjkmhi/res/font_9qmmi8b8jsxxbt9.woff") format("woff"), url("chrome-extension://pogijhnlcfmcppgimcaccdkmbedjkmhi/res/font_9qmmi8b8jsxxbt9.ttf") format("truetype"); }
</style></defs><path d="M793.316242 582.081844l-217.443235 127.162544c-70.196116-43.030984-203.537976-117.036169-203.537976-117.036169L131.345998 827.117115l192.59373 4.244596 4.29203 192.638289L586.427722 767.117805c30.862085 29.588563 67.923611 64.742679 66.90738 65.615171l191.218153 191.264149 4.290593-192.638288 192.595167-4.244597-248.122773-245.032396z" fill="#FFC800" p-id="2031"></path><path d="M744.130378 605.229486l-168.257371 104.014902c-70.196116-43.030984-164.478486-104.014902-164.478486-104.014902L185.713634 828.016917l138.224656 3.344794 3.548903 109.49565 221.339985-219.895414c30.862085 29.59 69.010274 0.574954 67.994043 1.447447L845.397 953.877191l3.445411-122.516917 131.09379-3.343357-235.805823-222.787431z" fill="#FF3B06" p-id="2032"></path><path d="M713.166238 723.368129l74.236604 12.235018a47.13328 47.13328 0 0 0 35.363974-8.364141 47.16059 47.16059 0 0 0 18.867111-31.087755l11.20585-74.285475a46.249288 46.249288 0 0 1 25.001869-34.398052l67.230791-33.643425c11.266221-5.617299 19.787037-15.5755 23.689536-27.527353a47.047036 47.047036 0 0 0-2.952388-36.204844l-34.567663-66.828324a46.119923 46.119923 0 0 1 0-42.447405l34.567663-66.824012a47.059973 47.059973 0 0 0 2.952388-36.204844c-3.903937-11.953291-12.424753-21.912929-23.689536-27.530228L877.841646 216.609552a46.236352 46.236352 0 0 1-25.001869-34.425362l-11.20585-74.253853a47.150528 47.150528 0 0 0-18.867111-31.08488 47.117468 47.117468 0 0 0-35.363974-8.367016l-74.236604 12.237893a46.18748 46.18748 0 0 1-40.391946-13.111823l-52.869881-53.558388a47.045599 47.045599 0 0 0-33.51981-14.046123 47.03985 47.03985 0 0 0-33.505436 14.044685l-52.872756 53.558389a46.183168 46.183168 0 0 1-40.390508 13.111823l-74.238042-12.237893a47.131842 47.131842 0 0 0-35.361099 8.367016 47.16059 47.16059 0 0 0-18.868549 31.08488l-11.20585 74.284038A46.240664 46.240664 0 0 1 294.94193 216.609552l-67.230792 33.644862c-11.267658 5.617299-19.788474 15.576937-23.690973 27.530228a47.059973 47.059973 0 0 0 2.949513 36.204844l34.569101 66.824012a46.119923 46.119923 0 0 1 0 42.447406l-34.569101 66.828323a47.055661 47.055661 0 0 0-2.949513 36.206282c3.902499 11.950416 12.423315 21.908617 23.690973 27.527353l67.230792 33.643425a46.250725 46.250725 0 0 1 25.000431 34.428236l11.20585 74.250979a47.172089 47.172089 0 0 0 18.868549 31.087754 47.143341 47.143341 0 0 0 35.361099 8.364142l74.238042-12.235018a46.183168 46.183168 0 0 1 40.390508 13.10751l52.872756 53.559826a47.012539 47.012539 0 0 0 33.505436 14.046123 47.031225 47.031225 0 0 0 33.521247-14.046123l52.869882-53.559826a46.190355 46.190355 0 0 1 40.390508-13.101761z" fill="#FFD31A" p-id="2033"></path><path d="M586.383164 673.89335c-153.771408 0-278.891428-125.117145-278.891429-278.875617 0-153.790094 125.12002-278.90724 278.891429-278.90724 153.791532 0 278.911552 125.117145 278.911551 278.90724-0.001437 153.758472-125.121458 278.875617-278.911551 278.875617z" fill="#C8921B" p-id="2034"></path><path d="M586.384601 615.686459c-121.680359 0-220.687412-99.004179-220.687412-220.670163 0-121.694733 99.007054-220.700349 220.687412-220.700349 121.693295 0 220.701786 99.005616 220.701786 220.700349 0 121.665985-99.008491 220.670164-220.701786 220.670163z" fill="#FFD31A" p-id="2035"></path><path d="M572.203364 302.651396s-17.836506 9.850397-34.061704 18.578197c-0.49446-13.872199-0.49446-33.676485-0.49446-33.676485 25.019117-18.494828 33.29414-24.53903 58.738723-38.868318 7.031686-2.664911 11.787991 2.019525 11.714685 4.036176-3.7372 102.242606-5.493684 134.849677-4.905794 257.552016h-34.087576c-0.370845-174.134836 3.096127-207.621586 3.096126-207.621586z" fill="#BD7039" p-id="2036"></path></svg>