<?xml version="1.0" standalone="no"?><!DOCTYPE svg PUBLIC "-//W3C//DTD SVG 1.1//EN" "http://www.w3.org/Graphics/SVG/1.1/DTD/svg11.dtd"><svg t="1511328841047" class="icon" style="" viewBox="0 0 1024 1024" version="1.1" xmlns="http://www.w3.org/2000/svg" p-id="4065" xmlns:xlink="http://www.w3.org/1999/xlink" width="140" height="140"><defs><style type="text/css"></style></defs><path d="M758.2 454.595892C728.4 454.595892 704.2 430.395892 704.2 400.595892 704.2 370.795892 728.4 346.595892 758.2 346.595892 788 346.595892 812.2 370.795892 812.2 400.595892 812.2 430.395892 788 454.595892 758.2 454.595892M737.2 102.795892 779.4 102.795892C798.2 102.795892 813.2 118.795892 812.2 137.595892L803.6 283.195892C802.6 300.595892 788.2 314.195892 770.8 314.195892L745.6 314.195892C728.2 314.195892 713.8 300.595892 712.8 283.195892L704.2 137.595892C703.2 118.595892 718.2 102.795892 737.2 102.795892M758.2 47.595892C630.6 47.595892 527 151.195892 527 278.795892 527 406.395892 630.6 509.995892 758.2 509.995892 886 509.995892 989.4 406.395892 989.4 278.795892 989.4 150.995892 886 47.595892 758.2 47.595892" p-id="4066" fill="#ffffff"></path><path d="M459.6 895.222918C423.6 895.222918 393.6 883.822918 376 869.422918L543.2 869.422918C525.6 883.822918 495.6 895.222918 459.6 895.222918M781.6 633.822918 781.6 586.022918C774.8 586.422918 768 586.822918 761.2 586.822918 738.8 586.822918 716.8 584.422918 695.8 579.822918L695.8 658.022918C695.8 674.022918 704.6 688.422918 718.6 696.022918 753.6 714.422918 779.6 746.222918 791 783.422918L128.4 783.422918C139.8 746.222918 165.8 714.422918 200.6 696.022918 214.8 688.622918 223.6 674.222918 223.6 658.022918L223.6 386.622918 223.4 384.422918C223 378.422918 222.4 372.222918 222.4 366.022918 222.4 235.222918 328.8 128.822918 459.6 128.822918 470.4 128.822918 481.4 129.822918 492.4 131.422918 508 103.422918 527.8 78.022918 551 56.222918 521.4 47.422918 490.8 43.022918 459.8 43.022918 281.6 43.022918 136.6 188.022918 136.6 366.222918 136.6 374.822918 137.2 383.222918 137.8 389.622918L137.8 634.022918C74 677.622918 36.2 748.822918 36.2 826.622918 36.2 850.222918 55.4 869.622918 79.2 869.622918L276.8 869.622918C294.2 935.222918 368.2 981.222918 459.8 981.222918 551.4 981.222918 625.4 935.022918 642.8 869.622918L840.4 869.622918C864.2 869.622918 883.4 850.422918 883.4 826.622918 883.2 748.622918 845.4 677.422918 781.6 633.822918" p-id="4067" fill="#ffffff"></path></svg>