<?xml version="1.0" encoding="UTF-8"?>
<svg width="20px" height="20px" viewBox="0 0 20 20" version="1.1" xmlns="http://www.w3.org/2000/svg" xmlns:xlink="http://www.w3.org/1999/xlink">
    <!-- Generator: Sketch 46.1 (44463) - http://www.bohemiancoding.com/sketch -->
    <title>entypo/lock-sel</title>
    <desc>Created with Sketch.</desc>
    <defs></defs>
    <g id="Symbols" stroke="none" stroke-width="1" fill="none" fill-rule="evenodd">
        <g id="entypo/lock-sel">
            <rect id="Rectangle-path" x="0" y="0" width="20" height="20"></rect>
            <path d="M15.672,7.94 L13.89,7.94 L13.89,6.554 C13.89,3.685 12.569,2 9.93,2 C7.291,2 5.97,3.686 5.97,6.554 L5.97,7.94 L3.99,7.94 C3.443,7.94 3,8.581 3,9.128 L3,16.851 C3,17.395 3.424,17.978 3.942,18.145 L5.127,18.527 C5.645,18.694 6.515,18.831 7.059,18.831 L12.802,18.831 C13.346,18.831 14.216,18.694 14.735,18.527 L15.92,18.145 C16.438,17.978 16.862,17.395 16.862,16.851 L16.862,9.128 C16.861,8.581 16.219,7.94 15.672,7.94 L15.672,7.94 Z M7.949,6.158 C7.949,4.727 8.739,3.98 9.929,3.98 C11.119,3.98 11.909,4.728 11.909,6.158 L11.909,7.94 L7.949,7.94 L7.949,6.158 L7.949,6.158 Z" id="Shape" fill="#0076FF"></path>
        </g>
    </g>
</svg>