<?xml version="1.0" encoding="UTF-8"?>
<svg width="20px" height="20px" viewBox="0 0 20 20" version="1.1" xmlns="http://www.w3.org/2000/svg" xmlns:xlink="http://www.w3.org/1999/xlink">
    <!-- Generator: Sketch 46.1 (44463) - http://www.bohemiancoding.com/sketch -->
    <title>位置</title>
    <desc>Created with Sketch.</desc>
    <defs></defs>
    <g id="Symbols" stroke="none" stroke-width="1" fill="none" fill-rule="evenodd">
        <g id="位置" fill="#0076FF">
            <path d="M8.294375,15.15075 C8.48820833,15.2940833 8.99733333,16.05875 9.407625,16.8266667 C9.48033333,16.96275 9.621875,17.047 9.77504167,17.047 C9.781875,17.047 9.78879167,17.0468333 9.79566667,17.0465 C9.956625,17.0385417 10.098625,16.9384583 10.1602083,16.7895417 C10.4717083,16.0360417 10.8895,15.2795417 11.072875,15.1319583 C14.66525,14.4475 17.2681667,11.3007083 17.2681667,7.63354167 C17.2681667,3.424375 13.843375,0 9.63383333,0 C5.42454167,0 2,3.424375 2,7.6335 C2,9.44504167 2.646,11.2015833 3.819,12.5795833 C4.96925,13.9308333 6.55675,14.8427083 8.294375,15.15075 L8.294375,15.15075 Z M9.63383333,0.833333333 C13.3839167,0.833333333 16.4348333,3.883875 16.4348333,7.6335 C16.4348333,10.9128333 14.0988333,13.7249583 10.8803333,14.3201667 C10.63725,14.365125 10.342375,14.5412917 9.835125,15.51775 C9.799875,15.5855833 9.76583333,15.6530417 9.73329167,15.7189167 C9.688375,15.6447917 9.64125,15.5683333 9.59266667,15.4915 C9.02504167,14.5935833 8.73575,14.380375 8.47695833,14.3367083 C5.20683333,13.776375 2.83333333,10.9572917 2.83333333,7.63354167 C2.83333333,3.883875 5.884,0.833333333 9.63383333,0.833333333 Z M13.0468333,15.4675833 C14.986875,15.9021667 16.05525,16.6457083 16.05525,17.5612083 C16.05525,18.0795833 15.7020833,18.8168333 14.019375,19.3855833 C12.847125,19.7817917 11.2970417,20 9.65470833,20 C8.01208333,20 6.461875,19.7817917 5.28958333,19.3856667 C3.60695833,18.8169167 3.25375,18.079625 3.25375,17.5612917 C3.25375,16.6946667 4.22633333,15.9743333 5.992375,15.533 C6.21554167,15.4773333 6.44183333,15.6129583 6.497625,15.8362083 C6.55341667,16.0594583 6.41766667,16.2856667 6.19441667,16.3414583 C4.74654167,16.70325 4.08708333,17.227375 4.08708333,17.56125 C4.08708333,17.8095417 4.47191667,18.2295833 5.55641667,18.596125 C6.645,18.9640417 8.10045833,19.1666667 9.65470833,19.1666667 C11.2087083,19.1666667 12.664,18.9640417 13.7525,18.5960833 C14.8370833,18.2295417 15.2219167,17.8095 15.2219167,17.5612083 C15.2219167,17.1988333 14.48425,16.6435417 12.8647083,16.28075 C12.6401667,16.2304583 12.498875,16.007625 12.5492083,15.7830833 C12.5995,15.5585417 12.8226667,15.4174583 13.0468333,15.4675833 Z M9.63445833,12.587875 C12.32725,12.587875 14.5179583,10.3969583 14.5179583,7.704 C14.5179583,5.01104167 12.32725,2.820125 9.63445833,2.820125 C6.941125,2.820125 4.74991667,5.01104167 4.74991667,7.704 C4.74991667,10.3969583 6.941125,12.587875 9.63445833,12.587875 Z M9.63445833,3.65345833 C11.86775,3.65345833 13.684625,5.47054167 13.684625,7.704 C13.684625,9.93745833 11.86775,11.7545417 9.63445833,11.7545417 C7.400625,11.7545417 5.58325,9.93745833 5.58325,7.704 C5.58325,5.47054167 7.400625,3.65345833 9.63445833,3.65345833 Z" id="placeholder-18"></path>
        </g>
    </g>
</svg>