<?xml version="1.0" encoding="UTF-8"?>
<svg width="40px" height="40px" viewBox="0 0 40 40" version="1.1" xmlns="http://www.w3.org/2000/svg" xmlns:xlink="http://www.w3.org/1999/xlink">
    <!-- Generator: Sketch 46.1 (44463) - http://www.bohemiancoding.com/sketch -->
    <title>湿度</title>
    <desc>Created with Sketch.</desc>
    <defs></defs>
    <g id="Symbols" stroke="none" stroke-width="1" fill="none" fill-rule="evenodd">
        <g id="湿度" fill="#8E98B4">
            <path d="M4,24.4266539 C4,16.2989513 10.916004,12.6956026 18.3268,0.661378439 C18.9739583,-0.231144023 20.2760417,-0.231144023 20.9583975,0.727243961 C28.380203,12.8014662 35.25,16.3101411 35.25,24.4266539 C35.25,33.0275755 28.2544492,40 19.625,40 C10.9955508,40 4,33.0275755 4,24.4266539 Z M18.2789458,4.97688222 C15.3085708,8.78586421 8.625759,18.1310885 8.47411304,18.3764124 C7.1838559,20.4637147 6.60416667,22.2770105 6.60416667,24.4266539 C6.60416667,31.5940885 12.4337923,37.4044423 19.625,37.4044423 C26.8162077,37.4044423 32.6458333,31.5940885 32.6458333,24.4266539 C32.6458333,22.2772856 32.0695628,20.4758178 30.7835148,18.4015264 C30.6725062,18.2224785 23.9562555,8.81543474 20.9925212,4.98379364 C20.2676917,4.04670346 19.0064683,4.04396295 18.2789458,4.97688222 Z M19.607782,34.2332962 C19.607782,34.8843378 18.6499786,34.8554129 18.2136163,34.799309 C13.5360813,34.1979095 9.83220344,30.4735006 9.24532179,25.7765301 C9.20455158,25.4502352 9.16415306,24.4094359 9.81304247,24.4094359 C10.4619319,24.4094359 10.5700622,25.8782435 10.5700622,25.8782435 C11.1746306,29.7825514 14.2490737,32.8671919 18.1404746,33.4737655 C18.1404746,33.4737655 19.607782,33.5822546 19.607782,34.2332962 Z" id="drop"></path>
        </g>
    </g>
</svg>