<?xml version="1.0" encoding="UTF-8"?>
<svg width="40px" height="40px" viewBox="0 0 40 40" version="1.1" xmlns="http://www.w3.org/2000/svg" xmlns:xlink="http://www.w3.org/1999/xlink">
    <!-- Generator: Sketch 47.1 (45422) - http://www.bohemiancoding.com/sketch -->
    <title>风量</title>
    <desc>Created with Sketch.</desc>
    <defs></defs>
    <g id="Symbols" stroke="none" stroke-width="1" fill="none" fill-rule="evenodd">
        <g id="风量" fill="#8E98B4">
            <g id="Group-6" transform="translate(5.000000, 0.000000)">
                <path d="M9.81046607,24.6939392 C9.94843629,25.8705274 10.1860174,27.0965262 10.535405,28.3734381 C6.04767883,26.5607132 3.44398094,23.4247054 2.30674864,19.2678591 C1.47758171,16.2370628 1.5041351,12.9524321 2.05432137,9.86024961 C2.06686855,9.78973137 2.09231602,9.65195645 2.09231602,9.65195645 C2.09231602,9.65195645 2.24851534,9.70769161 2.8186298,9.95582018 C4.44979246,10.6657444 6.08083388,11.5589994 7.59537294,12.6438778 C8.88875369,13.5703384 9.97046129,14.5495511 10.8561638,15.5871128 L10.8561638,15.5871128 C10.0848674,17.6225554 9.6403427,19.8882346 9.66368286,22.4015312 L5.24819779,14.299306 C5.120212,14.0644576 4.82624523,13.9779202 4.59160462,14.1060193 C4.35696401,14.2341185 4.2705032,14.5283456 4.39848898,14.763194 L9.81046607,24.6939392 L9.81046607,24.6939392 Z M12.609927,28.4944965 C10.6315973,19.2838488 10.7263261,14.4561496 20.8248749,6.52517035 C22.8586689,4.92791326 25.1468273,3.88765923 27.3880058,2.94109358 C28.1713295,2.61025547 28.3859436,2.53594193 28.3859436,2.53594193 C28.3859436,2.53594193 28.4209078,2.71964183 28.4381473,2.81366615 C29.1940901,6.93657618 29.2305739,11.3160838 28.0913183,15.3571455 C26.2862484,21.7599222 21.7922308,26.3462337 13.7247654,28.4943795 L24.6013825,9.4434423 C24.7339887,9.21117604 24.6533648,8.91529331 24.4213041,8.78256973 C24.1892433,8.64984615 23.8936224,8.73054144 23.7610163,8.9628077 L12.609927,28.4944965 L12.609927,28.4944965 L12.609927,28.4944965 Z M13.0504322,31 C37.7316986,24.703125 29.7784834,0 29.7784834,0 C29.7784834,0 16.4825219,3.60641239 11.598593,14.046875 C7.72702179,8.71875 0.829679655,7.75 0.829679655,7.75 C-3.88769182,29.546875 13.0504322,31 13.0504322,31 Z" id="houseplant"></path>
            </g>
            <text id="pm-2.5" font-family="PingFangSC-Regular, PingFang SC" font-size="9" font-weight="normal" letter-spacing="0.105">
                <tspan x="5.114" y="37">pm 2.5</tspan>
            </text>
        </g>
    </g>
</svg>