<?xml version="1.0" encoding="UTF-8"?>
<svg width="40px" height="40px" viewBox="0 0 40 40" version="1.1" xmlns="http://www.w3.org/2000/svg" xmlns:xlink="http://www.w3.org/1999/xlink">
    <!-- Generator: Sketch 46.1 (44463) - http://www.bohemiancoding.com/sketch -->
    <title>Shape</title>
    <desc>Created with Sketch.</desc>
    <defs></defs>
    <g id="Symbols" stroke="none" stroke-width="1" fill="none" fill-rule="evenodd">
        <g id="Shape" fill="#8E98B4">
            <path d="M32.4082539,23.9452971 L31.3038386,23.9448892 L31.3038386,23.9448892 L7.27479652,23.9358234 C3.26346887,23.9358234 0,20.6644342 0,16.6432463 C0,13.1720939 2.39857357,10.2703841 5.66387583,9.53245214 C5.61083583,9.24049825 5.58413739,8.94253489 5.58413739,8.63978254 C5.58413739,5.90126498 7.81278887,3.67330973 10.552225,3.67330973 C11.4622111,3.67330973 12.3342397,3.91595911 13.0950918,4.3708507 C15.1802139,1.61440489 18.3974181,0 21.9084073,0 C27.3954824,0 32.0207207,4.03988172 32.8418483,9.36375742 C36.6403534,9.61914028 39.6521739,12.788763 39.6521739,16.6482878 C39.6521739,20.6326511 36.407303,23.9060776 32.4189537,23.9451949 C32.4153871,23.9452971 32.4118205,23.9452971 32.4082539,23.9452971 L32.4082539,23.9452971 Z M26.3942956,32.3355295 L24.8065565,33.2588853 C24.6414741,33.354947 24.4610056,33.4005838 24.2828807,33.4005838 C23.9233701,33.4005838 23.573641,33.2147766 23.3799256,32.8817704 C23.0901162,32.3838393 23.2589677,31.7453311 23.757167,31.4556178 L25.3092908,30.5529742 L23.7309777,29.6966635 C23.2245235,29.4218232 23.0367183,28.7886119 23.3116508,28.2822263 C23.586481,27.7759419 24.2198024,27.5883019 24.7265624,27.86304 L26.396119,28.7688546 L26.3970449,26.9577381 C26.3973506,26.3817768 26.8644699,25.9177673 27.4405231,25.9177673 L27.4410323,25.9177673 C28.0173913,25.9177673 28.4843071,26.370825 28.4840014,26.9468885 L28.4831038,28.707231 L30.0708219,27.7838874 C30.5690212,27.4937673 31.2077447,27.66297 31.4974529,28.1610023 C31.7872623,28.6589333 31.6184108,29.2974416 31.1202115,29.5871548 L29.5680862,30.4897993 L31.1463997,31.3461102 C31.6528539,31.6209505 31.8406591,32.2541618 31.5657266,32.7605474 C31.3766984,33.1087311 31.0180028,33.3062537 30.6476901,33.3062537 C30.4795513,33.3062537 30.3090689,33.265507 30.150815,33.1797337 L28.4812853,32.2739336 L28.4803325,34.142513 C28.4800268,34.7184753 28.0129075,35.2016096 27.4368543,35.2016096 L27.436345,35.2016096 C26.8599861,35.2016096 26.3930703,34.7103003 26.393376,34.1342368 L26.3942956,32.3355295 Z M11.9939272,36.2728975 L10.546416,37.7184624 C10.3427144,37.9218922 10.0758323,38.0236588 9.80895026,38.0236588 C9.5417113,38.0236588 9.27452452,37.9216888 9.07071965,37.7177489 C8.6634167,37.3101746 8.66377357,36.6497649 9.07148348,36.2425985 L10.5294211,34.7866213 L7.82078817,34.7874146 C7.24448035,34.787109 6.77751339,34.3183125 6.77781913,33.742249 C6.77812487,33.1662878 7.24524417,32.6981015 7.82129739,32.6981015 L7.82180661,32.6981015 L10.5102098,32.7008965 L9.07398052,31.2636978 C8.66667757,30.8561236 8.66703443,30.1957138 9.07474435,29.7885475 C9.48250539,29.3814833 10.1431889,29.3816867 10.5504407,29.789261 L11.9964848,31.2362812 L11.9978598,28.5285423 C11.9981656,27.9525811 12.465336,27.4824598 13.0413381,27.4824598 L13.0418473,27.4824598 C13.6181551,27.4824598 14.0851221,27.9569612 14.0848163,28.5330246 L14.0834422,31.237379 L15.5309603,29.7918072 C15.9386713,29.3847431 16.5993537,29.3849465 17.0066567,29.7925207 C17.4139597,30.200095 17.4136028,30.8605047 17.0058929,31.2676711 L15.5654749,32.7061523 L18.2565892,32.7089501 C18.832897,32.7092557 19.299864,33.1710998 19.2995583,33.7471632 C19.2992525,34.3230233 18.8320821,34.7843582 18.25608,34.7843582 L18.2555708,34.7843582 L15.5429626,34.7851528 L17.0033958,36.2465718 C17.4106988,36.654146 17.4103419,37.3145558 17.002632,37.7217221 C16.7989304,37.925153 16.5320483,38.0269186 16.2651663,38.0269186 C15.9979273,38.0269186 15.7307405,37.9249486 15.5269357,37.7210086 L14.0808829,36.2739798 L14.0795176,38.9608449 C14.0792118,39.5368062 13.6120414,40 13.0360393,40 L13.0355301,40 C12.4592223,40 11.9922553,39.5393524 11.992561,38.963289 L11.9939272,36.2728975 Z M31.3046536,21.8586325 L8.34782609,21.8495677 L7.27479757,21.8495677 C4.41419896,21.8495677 2.08695757,19.5140409 2.08695757,16.6432474 C2.08695757,13.836987 4.28269565,11.5520373 7.08571826,11.4414083 C7.44018574,11.4274012 7.76326643,11.2343609 7.94342922,10.92891 C8.123592,10.6234079 8.13617739,10.2473622 7.97685287,9.93055269 C7.77396522,9.52715618 7.67109496,9.09289246 7.67109496,8.63978358 C7.67109496,7.05161024 8.96357113,5.75956747 10.5522261,5.75956747 C11.3246442,5.75956747 12.0500859,6.06114735 12.5949057,6.60878973 C12.8212299,6.83631167 13.1398779,6.94678731 13.4583736,6.90899477 C13.7770727,6.87094666 14.0605638,6.68845032 14.2269704,6.41412008 C15.8711113,3.70417589 18.7426633,2.08625774 21.9084073,2.08625774 C26.6292803,2.08625774 30.5637235,5.77117957 30.8656591,10.4753421 C30.8833899,10.752372 31.0109718,11.0109134 31.2199732,11.1937154 C31.4290758,11.3765174 31.7036003,11.468199 31.9793478,11.4492005 C32.0916438,11.4414073 32.2230981,11.4334107 32.3460939,11.4334107 C35.223913,11.4334107 37.5652174,13.7728096 37.5652174,16.6482888 C37.5652174,19.4917806 35.2502035,21.8282765 32.4035666,21.8590404 L31.3046536,21.8586325 Z"></path>
        </g>
    </g>
</svg>