<?xml version="1.0" encoding="UTF-8"?>
<svg width="40px" height="40px" viewBox="0 0 40 40" version="1.1" xmlns="http://www.w3.org/2000/svg" xmlns:xlink="http://www.w3.org/1999/xlink">
    <!-- Generator: Sketch 46.1 (44463) - http://www.bohemiancoding.com/sketch -->
    <title>temperature</title>
    <desc>Created with Sketch.</desc>
    <defs></defs>
    <g id="Symbols" stroke="none" stroke-width="1" fill="none" fill-rule="evenodd">
        <g id="temperature" fill="#8E98B4">
            <path d="M12.25,14.7236634 C8.48723841,17.1770398 6,21.4230571 6,26.25 C6,33.8439153 12.1560847,40 19.75,40 C27.3439153,40 33.5,33.8439153 33.5,26.25 C33.5,21.4230571 31.0127616,17.1770398 27.25,14.7236634 L27.25,7.49834486 C27.25,3.35242251 23.8921356,0 19.75,0 C15.6162928,0 12.25,3.35712334 12.25,7.49834486 L12.25,14.7236634 L12.25,14.7236634 L12.25,14.7236634 Z M24.75,16.1693996 C28.4542962,18.0102778 31,21.8328484 31,26.25 C31,32.4632034 25.9632034,37.5 19.75,37.5 C13.5367966,37.5 8.5,32.4632034 8.5,26.25 C8.5,21.8328484 11.0457038,18.0102778 14.75,16.1693996 L14.75,7.49834486 C14.75,4.74130134 16.9935363,2.5 19.75,2.5 C22.5134141,2.5 24.75,4.73512397 24.75,7.49834486 L24.75,16.1693996 L24.75,16.1693996 L24.75,16.1693996 Z M17.25,17.2373483 C13.6356388,18.3130348 11,21.6612242 11,25.625 C11,30.4574916 14.9175084,34.375 19.75,34.375 C24.5824916,34.375 28.5,30.4574916 28.5,25.625 C28.5,21.6612242 25.8643612,18.3130348 22.25,17.2373483 L22.25,7.50732332 C22.25,6.12132516 21.1307119,5 19.75,5 C18.3596621,5 17.25,6.12256689 17.25,7.50732332 L17.25,17.2373483 L17.25,17.2373483 L17.25,17.2373483 Z M21,18.2286981 C24.5471417,18.8237957 27.25,21.9087546 27.25,25.625 C27.25,29.7671356 23.8921356,33.125 19.75,33.125 C15.6078644,33.125 12.25,29.7671356 12.25,25.625 C12.25,21.9087546 14.9528583,18.8237957 18.5,18.2286981 L18.5,7.50732332 C18.5,6.80802076 19.0549111,6.25 19.75,6.25 C20.4400599,6.25 21,6.81138823 21,7.50732332 L21,18.2286981 L21,18.2286981 L21,18.2286981 Z M21,30 C21,30.625 19.75,30.625 19.75,30.625 C16.9885763,30.625 14.75,28.3864237 14.75,25.625 C14.75,25.625 14.75,24.375 15.375,24.375 C16,24.375 16,25.1597239 16,25.625 C16,26.875 17.875,29.375 19.75,29.375 C20.6347499,29.375 21,29.375 21,30 L21,30 Z"></path>
        </g>
    </g>
</svg>