<?xml version="1.0" encoding="UTF-8"?>
<svg width="40px" height="40px" viewBox="0 0 40 40" version="1.1" xmlns="http://www.w3.org/2000/svg" xmlns:xlink="http://www.w3.org/1999/xlink">
    <!-- Generator: Sketch 46.1 (44463) - http://www.bohemiancoding.com/sketch -->
    <title>风量</title>
    <desc>Created with Sketch.</desc>
    <defs></defs>
    <g id="Symbols" stroke="none" stroke-width="1" fill="none" fill-rule="evenodd">
        <g id="风量" stroke="#8E98B4" stroke-width="0.2" fill="#8E98B4">
            <path d="M33.1404675,21.2380952 L4.1563286,21.2380952 C1.9034128,21.2380952 0,19.2754969 0,16.9524093 C0,14.589268 1.86147387,12.6666667 4.14950636,12.6666667 C6.43574998,12.6666667 8.29565715,14.5766517 8.29565715,16.9242917 C8.29565715,17.5641972 7.7828683,18.0829215 7.15041033,18.0829215 C6.51795236,18.0829215 6.00516352,17.5641972 6.00516352,16.9242917 C6.00516352,15.8725293 5.15539954,14.9839263 4.14950636,14.9839263 C3.14182316,14.9839263 2.29049363,15.8853715 2.29049363,16.9524093 C2.29049363,18.0193892 3.14495541,18.9208356 4.1563286,18.9208356 L33.1404675,18.9208356 C33.7729254,18.9208356 34.2857143,19.43956 34.2857143,20.0794654 C34.2857143,20.7193709 33.7729254,21.2380952 33.1404675,21.2380952 Z M38.8663424,16.4761905 L15.6419713,16.4761905 C12.7935454,16.4761905 10.4761905,14.1264158 10.4761905,11.2381231 C10.4761905,8.34983041 12.7830285,6 15.6185012,6 C18.4475529,6 20.7490774,8.34038149 20.7490774,11.2171138 C20.7490774,11.8457842 20.2414777,12.3554012 19.6154198,12.3554012 C18.9893619,12.3554012 18.4817621,11.8457842 18.4817621,11.2171138 C18.4817621,9.59572125 17.197319,8.27657479 15.6185012,8.27657479 C14.0332624,8.27657479 12.7435057,9.6051144 12.7435057,11.2381231 C12.7435057,12.8433975 14.0707932,14.1996157 15.6419713,14.1996157 L38.8663424,14.1996157 C39.4924003,14.1996157 40,14.7092326 40,15.3379031 C40,15.9665735 39.4924003,16.4761905 38.8663424,16.4761905 Z M8.10309148,34.5714286 C6.70087787,34.5714286 5.38597836,34.0341729 4.40048037,33.0586405 C3.40528132,32.0735398 2.85714286,30.7505048 2.85714286,29.3333905 C2.85714286,26.4450601 5.21575015,24.0952381 8.11482447,24.0952381 L36.9400756,24.0952381 C37.5780095,24.0952381 38.0952381,24.6174589 38.0952381,25.2615499 C38.0952381,25.9056409 37.5780095,26.4278617 36.9400756,26.4278617 L8.11482331,26.4278617 C6.46206073,26.4278617 5.16746667,27.7040844 5.16746667,29.3333905 C5.16746667,30.9625823 6.45698494,32.238805 8.10309148,32.238805 C9.7459266,32.238805 11.0328492,30.9531282 11.0328492,29.3118639 C11.0328492,28.6677728 11.5500778,28.1455521 12.1880117,28.1455521 C12.8259456,28.1455521 13.3431742,28.6677728 13.3431742,29.3118639 C13.3431742,32.2120393 10.9924636,34.5714286 8.10309148,34.5714286 Z" id="Shape"></path>
        </g>
    </g>
</svg>