<?xml version="1.0" encoding="UTF-8"?>
<svg width="35px" height="35px" viewBox="0 0 35 35" version="1.1" xmlns="http://www.w3.org/2000/svg" xmlns:xlink="http://www.w3.org/1999/xlink">
    <!-- Generator: Sketch 46.1 (44463) - http://www.bohemiancoding.com/sketch -->
    <title>预警</title>
    <desc>Created with Sketch.</desc>
    <defs></defs>
    <g id="Symbols" stroke="none" stroke-width="1" fill="none" fill-rule="evenodd">
        <g id="预警" fill="#FFFFFF">
            <path d="M9.38634794,22.7369857 C6.69601432,20.3552459 5,16.8756856 5,13 C5,5.82029825 10.8202983,0 18,0 C25.1797017,0 31,5.82029825 31,13 C31,16.8297966 29.3439103,20.2727927 26.7087952,22.6519241 C25.4440322,23.7938239 24.9263308,28.5072146 23.6631687,31.4489871 C22.6243255,33.8683443 21.1067209,34.7117546 18.0354411,34.6394246 C15.0387248,34.5688506 13.3701891,33.8134228 12.3333944,31.5102946 C11.015558,28.5828628 10.6699735,23.8733735 9.38634794,22.7369857 L9.38634794,22.7369857 Z M7.16666667,13 C7.16666667,7.01691521 12.0169152,2.16666667 18,2.16666667 C23.9830848,2.16666667 28.8333333,7.01691521 28.8333333,13 C28.8333333,14.5209769 28.5188909,15.9901057 27.9326244,17.3333333 L8.06740258,17.3333333 C7.4812451,15.9902964 7.16666667,14.521142 7.16666667,13 L7.16666667,13 Z M11.9833987,22.75 C11.6744603,22.0535318 11.318037,21.5533656 10.8225434,21.1147074 C9.93813833,20.3317477 9.19513746,19.4201432 8.61487088,18.4166667 L8.61487088,18.4166667 L27.3851225,18.4166667 C26.822414,19.3897093 26.1065649,20.2765557 25.2568353,21.0437398 C24.7602953,21.4920443 24.3967639,22.014778 24.0713557,22.75 L11.9833987,22.75 L11.9833987,22.75 L11.9833987,22.75 Z M12.6936223,24.9166667 C12.7697622,25.2046759 12.8477435,25.5134486 12.9291836,25.8453655 C12.9557158,25.9534998 13.2290939,27.0884889 13.3465446,27.5638032 L13.3465446,27.5638032 L23.2945797,25.0664859 C23.3086083,25.0159493 23.3225637,24.9660131 23.3364533,24.9166667 L12.6936223,24.9166667 L12.6936223,24.9166667 L12.6936223,24.9166667 Z M14.2895345,30.5770786 C14.0590455,30.0567178 13.8470374,29.4293159 13.6203779,28.6120083 L13.6203779,28.6120083 L22.975577,26.2635144 C22.8571311,26.7199044 22.6909367,27.362131 22.6334737,27.5795145 C22.5404356,27.9314796 22.4525355,28.2531019 22.3679788,28.5490963 L14.2895337,30.5770787 L14.2895345,30.5770786 L14.2895345,30.5770786 Z M14.8845075,31.544666 C15.4818084,32.1977778 16.3745137,32.4330416 18.0864529,32.4733586 C20.3287743,32.5261662 21.0071155,32.1432134 21.672277,30.5941219 C21.7805879,30.3418771 21.8855006,30.0678882 21.9914246,29.7605723 L14.8845075,31.544666 L14.8845075,31.544666 L14.8845075,31.544666 Z M9.87499998,13.0512528 C9.33333333,13.0512528 9.35739886,12.2517172 9.40407732,11.8874596 C9.90444168,7.98284236 13.00315,4.89099482 16.9110294,4.40108974 C17.1825067,4.36705641 18.0484517,4.33333336 18.0484517,4.87500002 C18.0484517,5.41666667 16.8264038,5.50692949 16.8264038,5.50692949 C13.5780197,6.01159877 11.0115988,8.57801965 10.5069295,11.8264038 C10.5069295,11.8264038 10.4166666,13.0512528 9.87499998,13.0512528 L9.87499998,13.0512528 Z" id="bulb"></path>
        </g>
    </g>
</svg>