<?xml version="1.0" encoding="UTF-8"?>
<svg width="35px" height="35px" viewBox="0 0 35 35" version="1.1" xmlns="http://www.w3.org/2000/svg" xmlns:xlink="http://www.w3.org/1999/xlink">
    <!-- Generator: Sketch 46.1 (44463) - http://www.bohemiancoding.com/sketch -->
    <title>实时数据</title>
    <desc>Created with Sketch.</desc>
    <defs></defs>
    <g id="Symbols" stroke="none" stroke-width="1" fill="none" fill-rule="evenodd">
        <g id="实时数据" fill="#FFFFFF">
            <g id="pie-chart" transform="translate(3.000000, 3.000000)">
                <path d="M14.9030769,2.00769231 C11.4475385,2.00769231 8.19230769,3.35076923 5.73692308,5.79692308 C3.288,8.24769231 1.938,11.5061538 1.938,14.9676923 C1.938,22.1123077 7.75430769,27.9276923 14.9030769,27.9276923 C21.7047692,27.9276923 27.3826154,22.6153846 27.8293846,15.84 C27.8529231,15.5584615 27.8630769,15.2815385 27.8630769,14.9676923 C27.8630769,10.6707692 25.7376923,6.66 22.1773846,4.24153846 C20.0261538,2.77846154 17.5103077,2.00769231 14.9030769,2.00769231 L14.9030769,2.00769231 Z M14.9030769,29.7738462 C6.73661538,29.7738462 0.0918461538,23.1323077 0.0918461538,14.9676923 C0.0918461538,11.0123077 1.63338462,7.29230769 4.43261538,4.49076923 C7.23784615,1.69846154 10.9555385,0.161538462 14.9030769,0.161538462 C17.8823077,0.161538462 20.7563077,1.04307692 23.2149231,2.71384615 C27.2810769,5.47846154 29.7092308,10.0569231 29.7092308,14.9676923 C29.7092308,15.3323077 29.6967692,15.66 29.6704615,15.9784615 C29.1609231,23.7046154 22.674,29.7738462 14.9030769,29.7738462 L14.9030769,29.7738462 Z" id="Fill-586" stroke="#FFFFFF" stroke-width="0.2"></path>
                <path d="M7.96153846,23.7046154 C7.866,23.7046154 7.76953846,23.6723077 7.68692308,23.6123077 C5.85830769,22.2553846 4.52861538,20.4 3.84,18.24 C3.76246154,18 3.89676923,17.7369231 4.13953846,17.6630769 C4.38276923,17.5846154 4.64215385,17.7184615 4.71969231,17.9630769 C5.34876923,19.9338462 6.56492308,21.6323077 8.23707692,22.8692308 C8.44153846,23.0215385 8.48446154,23.3123077 8.33261538,23.5153846 C8.24169231,23.64 8.10276923,23.7046154 7.96153846,23.7046154" id="Fill-588"></path>
                <path d="M14.9030769,15.4292308 C14.7807692,15.4292308 14.6635385,15.3784615 14.5767692,15.2907692 L4.83646154,5.55230769 C4.656,5.37230769 4.656,5.08153846 4.83646154,4.90153846 C5.01646154,4.72153846 5.30861538,4.72153846 5.48907692,4.90153846 L14.8943077,14.3030769 L24.1056923,4.56461538 C24.2810769,4.38 24.5732308,4.37076923 24.7587692,4.54615385 C24.9438462,4.72153846 24.9521538,5.01230769 24.7767692,5.19692308 L15.2386154,15.2861538 C15.1527692,15.3738462 15.0341538,15.4246154 14.91,15.4292308 L14.9030769,15.4292308" id="Fill-589" stroke="#FFFFFF" stroke-width="0.4"></path>
                <path d="M14.9030769,15.4292308 C14.6543077,15.4292308 14.4493846,15.2307692 14.442,14.9815385 C14.4341538,14.7230769 14.6353846,14.5107692 14.8901538,14.5061538 L28.26,14.1184615 C28.5096923,14.1184615 28.7275385,14.3123077 28.7349231,14.5707692 C28.7423077,14.8246154 28.5415385,15.0369231 28.2867692,15.0415385 L14.9164615,15.4292308 L14.9030769,15.4292308" id="Fill-590" stroke="#FFFFFF" stroke-width="0.4"></path>
            </g>
        </g>
    </g>
</svg>