<?xml version="1.0" encoding="UTF-8"?>
<svg width="32px" height="32px" viewBox="0 0 32 32" version="1.1" xmlns="http://www.w3.org/2000/svg" xmlns:xlink="http://www.w3.org/1999/xlink">
    <!-- Generator: Sketch 46.1 (44463) - http://www.bohemiancoding.com/sketch -->
    <title>湿度</title>
    <desc>Created with Sketch.</desc>
    <defs></defs>
    <g id="Symbols" stroke="none" stroke-width="1" fill="none" fill-rule="evenodd">
        <g id="湿度" fill="#0099FF">
            <g id="Group-5" transform="translate(4.000000, 1.000000)">
                <path d="M10.9662304,3.83492323 C8.68498237,6.76992408 3.55258291,13.9708615 3.43611882,14.1598952 C2.44520133,15.7682604 2,17.1654906 2,18.8218926 C2,24.3447401 6.4771525,28.8218926 12,28.8218926 C17.5228475,28.8218926 22,24.3447401 22,18.8218926 C22,17.1657026 21.5574243,15.7775864 20.5697394,14.1792468 C20.4844847,14.0412819 15.3264043,6.79270957 13.0502563,3.84024881 C12.4935872,3.11817649 11.5249676,3.11606479 10.9662304,3.83492323 Z" id="Path" opacity="0.288496377"></path>
                <path d="M0,18.8218926 C0,12.5591132 5.31149107,9.78256251 11.0029824,0.50962338 C11.5,-0.178107406 12.5,-0.178107406 13.0240493,0.560375881 C18.7239959,9.86413537 24,12.5677355 24,18.8218926 C24,25.4493096 18.627417,30.8218926 12,30.8218926 C5.372583,30.8218926 0,25.4493096 0,18.8218926 Z M10.9662304,3.83492323 C8.68498237,6.76992408 3.55258291,13.9708615 3.43611882,14.1598952 C2.44520133,15.7682604 2,17.1654906 2,18.8218926 C2,24.3447401 6.4771525,28.8218926 12,28.8218926 C17.5228475,28.8218926 22,24.3447401 22,18.8218926 C22,17.1657026 21.5574243,15.7775864 20.5697394,14.1792468 C20.4844847,14.0412819 15.3264043,6.79270957 13.0502563,3.84024881 C12.4935872,3.11817649 11.5249676,3.11606479 10.9662304,3.83492323 Z M12,26.3666173 C12,26.8666172 11.2619671,26.8444029 10.9257293,26.8013151 C7.32146728,26.3394403 4.46745417,23.4790942 4.01523409,19.8718209 C3.98381871,19.6212264 3.95268975,18.8218926 4.45268973,18.8218926 C4.95268972,18.8218926 5.03600925,19.9499368 5.03600925,19.9499368 C5.50185782,22.9484453 7.8708617,25.3174492 10.8693702,25.7832977 C10.8693702,25.7832977 12,25.8666173 12,26.3666173 Z" id="drop"></path>
            </g>
        </g>
    </g>
</svg>