<?xml version="1.0" encoding="UTF-8"?>
<svg width="35px" height="35px" viewBox="0 0 35 35" version="1.1" xmlns="http://www.w3.org/2000/svg" xmlns:xlink="http://www.w3.org/1999/xlink">
    <!-- Generator: Sketch 46.1 (44463) - http://www.bohemiancoding.com/sketch -->
    <title>监控</title>
    <desc>Created with Sketch.</desc>
    <defs></defs>
    <g id="Symbols" stroke="none" stroke-width="1" fill="none" fill-rule="evenodd">
        <g id="监控" fill="#FFFFFF">
            <path d="M17.5,30.25 C8.82132208,30.25 6.45380881e-16,22.9380742 0,17.125 C6.45380881e-16,11.3119258 8.82132208,4 17.5,4 C26.1786779,4 35,11.3119258 35,17.125 C35,22.9380742 26.1786779,30.25 17.5,30.25 Z M17.5,28.0625 C25.0517689,28.0625 32.8125,21.6296898 32.8125,17.125 C32.8125,12.6203102 25.0517689,6.1875 17.5,6.1875 C9.94823114,6.1875 2.1875,12.6203102 2.1875,17.125 C2.1875,21.6296898 9.94823114,28.0625 17.5,28.0625 Z M17.5,25.875 C12.6675084,25.875 8.75,21.9574916 8.75,17.125 C8.75,12.2925084 12.6675084,8.375 17.5,8.375 C22.3324916,8.375 26.25,12.2925084 26.25,17.125 C26.25,21.9574916 22.3324916,25.875 17.5,25.875 Z M17.5,24.78125 C21.7284301,24.78125 25.15625,21.3534301 25.15625,17.125 C25.15625,12.8965699 21.7284301,9.46875 17.5,9.46875 C13.2715699,9.46875 9.84375,12.8965699 9.84375,17.125 C9.84375,21.3534301 13.2715699,24.78125 17.5,24.78125 Z M12.578125,17.125 C12.03125,17.125 12.03125,16.8097295 12.03125,16.578125 C12.03125,13.8437499 14.2187499,11.65625 16.953125,11.65625 C17.1256845,11.65625 17.5,11.8615049 17.5,12.203125 C17.5,12.5447451 16.953125,12.7499999 16.953125,12.7499999 C14.765625,12.75 13.125,14.3906249 13.125,16.578125 C13.125,16.578125 13.125,17.125 12.578125,17.125 Z" id="eye"></path>
        </g>
    </g>
</svg>