<?xml version="1.0" encoding="UTF-8"?>
<svg width="32px" height="32px" viewBox="0 0 32 32" version="1.1" xmlns="http://www.w3.org/2000/svg" xmlns:xlink="http://www.w3.org/1999/xlink">
    <!-- Generator: Sketch 46.1 (44463) - http://www.bohemiancoding.com/sketch -->
    <title>pm</title>
    <desc>Created with Sketch.</desc>
    <defs></defs>
    <g id="Symbols" stroke="none" stroke-width="1" fill="none" fill-rule="evenodd">
        <g id="pm" fill="#0099FF">
            <g id="Group-6">
                <path d="M1.95562417,9.30367656 C1.42721568,15.0603492 1.16301143,18.0229413 1.16301143,18.1914529 C1.16301143,18.3599644 2.10325538,20.8161825 3.98374327,25.5601072 C9.187035,28.9632845 11.8786026,30.6648732 12.0584462,30.6648732 C12.2382898,30.6648732 15.9127014,29.5435266 23.0816811,27.3008333 L30.7578743,14.3221932 L30.1037641,1.21197557 C25.1732806,3.38541749 22.6157037,4.51253505 22.4310336,4.59332825 C22.2463634,4.67412144 18.7888343,8.45582016 12.0584462,15.9384244 L7.97073015,11.6780522 L1.95562417,9.30367656 Z" id="Path-2" opacity="0.307235054"></path>
                <path d="M10.1269327,25.4905179 C10.2693536,26.7050605 10.5145987,27.9706077 10.8752567,29.2887103 C6.24276525,27.4175104 3.5550771,24.180341 2.38115988,19.889403 C1.52524564,16.760839 1.55265559,13.3702525 2.1205898,10.1783222 C2.13354173,10.1055292 2.15981009,9.96330988 2.15981009,9.96330988 C2.15981009,9.96330988 2.3210481,10.0208429 2.90955334,10.2769757 C4.59333416,11.0098007 6.27698982,11.9318703 7.84038498,13.0517448 C9.17548768,14.0080913 10.2920891,15.0188915 11.2063626,16.0899229 L11.2063626,16.0899229 C10.4101857,18.1910249 9.9513215,20.5297906 9.97541457,23.1241613 L5.41749449,14.7605739 C5.28538013,14.5181498 4.98193056,14.4288208 4.7397209,14.5610522 C4.49751124,14.6932836 4.40826137,14.9970019 4.54037573,15.2394261 L10.1269327,25.4905179 L10.1269327,25.4905179 Z M13.0166989,29.4136738 C10.974552,19.9059085 11.0723367,14.922477 21.496645,6.73565972 C23.5960454,5.0868782 25.9580153,4.01306759 28.2714899,3.03596757 C29.080082,2.69445726 29.3016192,2.61774651 29.3016192,2.61774651 C29.3016192,2.61774651 29.3377113,2.80737221 29.3555069,2.90442957 C30.135835,7.1603367 30.1734956,11.6811187 28.9974899,15.8525373 C27.1341919,22.4618551 22.4952059,27.1961122 14.1674998,29.413553 L25.3949755,9.74806947 C25.5318593,9.50831075 25.4486346,9.20288341 25.2090881,9.06587843 C24.9695415,8.92887344 24.6643844,9.01217181 24.5275007,9.25193053 L13.0166989,29.4136738 L13.0166989,29.4136738 L13.0166989,29.4136738 Z M13.4714139,32 C38.9488502,25.5 30.7390796,0 30.7390796,0 C30.7390796,0 17.0142162,3.72274828 11.9727412,14.5 C7.97628056,9 0.856443515,8 0.856443515,8 C-4.01310123,30.5 13.4714139,32 13.4714139,32 Z" id="houseplant"></path>
            </g>
        </g>
    </g>
</svg>