<?xml version="1.0" encoding="UTF-8"?>
<svg width="35px" height="35px" viewBox="0 0 35 35" version="1.1" xmlns="http://www.w3.org/2000/svg" xmlns:xlink="http://www.w3.org/1999/xlink">
    <!-- Generator: Sketch 46.1 (44463) - http://www.bohemiancoding.com/sketch -->
    <title>任务</title>
    <desc>Created with Sketch.</desc>
    <defs></defs>
    <g id="Symbols" stroke="none" stroke-width="1" fill="none" fill-rule="evenodd">
        <g id="任务" fill="#FFFFFF">
            <g id="switch-windows-2" transform="translate(3.000000, 3.000000)">
                <path d="M27.8027273,10.6818182 C27.8027273,9.94545455 27.2063636,9.35 26.47,9.35 L3.22636364,9.35 C2.49045455,9.35 1.89363636,9.94545455 1.89363636,10.6818182 L1.89363636,26.6545455 C1.89363636,27.3909091 2.49045455,27.9863636 3.22636364,27.9863636 L26.47,27.9863636 C27.2063636,27.9863636 27.8027273,27.3909091 27.8027273,26.6545455 L27.8027273,10.6818182 L27.8027273,10.6818182 Z M29.6209091,26.6545455 C29.6209091,28.3954545 28.2104545,29.8045455 26.47,29.8045455 L3.22636364,29.8045455 C1.48636364,29.8045455 0.0754545455,28.3954545 0.0754545455,26.6545455 L0.0754545455,10.6818182 C0.0754545455,8.94090909 1.48636364,7.53181818 3.22636364,7.53181818 L26.47,7.53181818 C28.2104545,7.53181818 29.6209091,8.94090909 29.6209091,10.6818182 L29.6209091,26.6545455 L29.6209091,26.6545455 Z" id="Fill-115" stroke="#FFFFFF" stroke-width="0.2"></path>
                <path d="M4.16636364,15.7136364 C3.915,15.7136364 3.71181818,15.5090909 3.71181818,15.2590909 L3.71181818,13.5318182 C3.71181818,12.2954545 4.76318182,11.1681818 5.94045455,11.1681818 L14.1454545,11.1681818 C14.3963636,11.1681818 14.6,11.3727273 14.6,11.6227273 C14.6,11.8727273 14.3963636,12.0772727 14.1454545,12.0772727 L5.94045455,12.0772727 C5.27636364,12.0772727 4.62090909,12.8090909 4.62090909,13.5318182 L4.62090909,15.2590909 C4.62090909,15.5090909 4.41727273,15.7136364 4.16636364,15.7136364" id="Fill-116"></path>
                <path d="M25.9636364,5.71363636 L3.69090909,5.71363636 C3.18909091,5.71363636 2.78181818,5.30454545 2.78181818,4.80454545 C2.78181818,4.30454545 3.18909091,3.89545455 3.69090909,3.89545455 L25.9636364,3.89545455 C26.4659091,3.89545455 26.8727273,4.30454545 26.8727273,4.80454545 C26.8727273,5.30454545 26.4659091,5.71363636 25.9636364,5.71363636" id="Fill-118"></path>
                <path d="M23.2363636,2.07727273 L6.41818182,2.07727273 C5.91636364,2.07727273 5.50909091,1.66818182 5.50909091,1.16818182 C5.50909091,0.668181818 5.91636364,0.259090909 6.41818182,0.259090909 L23.2363636,0.259090909 C23.7386364,0.259090909 24.1454545,0.668181818 24.1454545,1.16818182 C24.1454545,1.66818182 23.7386364,2.07727273 23.2363636,2.07727273" id="Fill-119"></path>
            </g>
        </g>
    </g>
</svg>