<?xml version="1.0" encoding="UTF-8"?>
<svg width="32px" height="32px" viewBox="0 0 32 32" version="1.1" xmlns="http://www.w3.org/2000/svg" xmlns:xlink="http://www.w3.org/1999/xlink">
    <!-- Generator: Sketch 46.1 (44463) - http://www.bohemiancoding.com/sketch -->
    <title>温度</title>
    <desc>Created with Sketch.</desc>
    <defs></defs>
    <g id="Symbols" stroke="none" stroke-width="1" fill="none" fill-rule="evenodd">
        <g id="温度" fill="#0099FF">
            <g id="Group-4" transform="translate(5.000000, 0.000000)">
                <path d="M12,14.5829584 C14.8377133,15.0590365 17,17.5270037 17,20.5 C17,23.8137085 14.3137085,26.5 11,26.5 C7.6862915,26.5 5,23.8137085 5,20.5 C5,17.5270037 7.16228666,15.0590365 10,14.5829584 L10,6.00585866 C10,5.44641661 10.4439289,5 11,5 C11.5520479,5 12,5.44911059 12,6.00585866 L12,14.5829584 L12,14.5829584 L12,14.5829584 Z" id="Path" opacity="0.292912138"></path>
                <path d="M5,11.7789307 C1.98979073,13.7416318 0,17.1384457 0,21 C0,27.0751322 4.92486775,32 11,32 C17.0751322,32 22,27.0751322 22,21 C22,17.1384457 20.0102093,13.7416318 17,11.7789307 L17,5.99867589 C17,2.68193801 14.3137085,0 11,0 C7.69303423,0 5,2.68569868 5,5.99867589 L5,11.7789307 L5,11.7789307 L5,11.7789307 Z M15,12.9355196 C17.963437,14.4082222 20,17.4662787 20,21 C20,25.9705627 15.9705627,30 11,30 C6.02943725,30 2,25.9705627 2,21 C2,17.4662787 4.03656304,14.4082222 7,12.9355196 L7,5.99867589 C7,3.79304107 8.79482901,2 11,2 C13.2107313,2 15,3.78809918 15,5.99867589 L15,12.9355196 L15,12.9355196 L15,12.9355196 Z M9,13.7898787 C6.10851105,14.6504279 4,17.3289794 4,20.5 C4,24.3659932 7.13400675,27.5 11,27.5 C14.8659932,27.5 18,24.3659932 18,20.5 C18,17.3289794 15.8914889,14.6504279 13,13.7898787 L13,6.00585866 C13,4.89706013 12.1045695,4 11,4 C9.88772964,4 9,4.89805351 9,6.00585866 L9,13.7898787 L9,13.7898787 L9,13.7898787 Z M12,14.5829584 C14.8377133,15.0590365 17,17.5270037 17,20.5 C17,23.8137085 14.3137085,26.5 11,26.5 C7.6862915,26.5 5,23.8137085 5,20.5 C5,17.5270037 7.16228666,15.0590365 10,14.5829584 L10,6.00585866 C10,5.44641661 10.4439289,5 11,5 C11.5520479,5 12,5.44911059 12,6.00585866 L12,14.5829584 L12,14.5829584 L12,14.5829584 Z M12,24 C12,24.5 11,24.5 11,24.5 C8.790861,24.5 7,22.709139 7,20.5 C7,20.5 7,19.5 7.5,19.5 C8,19.5 8,20.1277791 8,20.5 C8,21.5 9.5,23.5 11,23.5 C11.7077999,23.5 12,23.5 12,24 L12,24 Z" id="temperature"></path>
            </g>
        </g>
    </g>
</svg>