<?xml version="1.0" encoding="UTF-8"?>
<svg width="250px" height="250px" viewBox="0 0 250 250" version="1.1" xmlns="http://www.w3.org/2000/svg" xmlns:xlink="http://www.w3.org/1999/xlink">
    <!-- Generator: Sketch 46.1 (44463) - http://www.bohemiancoding.com/sketch -->
    <title>tu1</title>
    <desc>Created with Sketch.</desc>
    <defs>
        <linearGradient x1="5.90514421%" y1="66.3183594%" x2="94.5850885%" y2="56.6373698%" id="linearGradient-1">
            <stop stop-color="#6DD0EA" offset="0%"></stop>
            <stop stop-color="#005BEA" offset="100%"></stop>
        </linearGradient>
        <linearGradient x1="78.2101719%" y1="68.2830376%" x2="27.3368952%" y2="8.03129142%" id="linearGradient-2">
            <stop stop-color="#ABCAFF" offset="0%"></stop>
            <stop stop-color="#12FFF4" offset="100%"></stop>
        </linearGradient>
        <linearGradient x1="46.4545879%" y1="14.1699219%" x2="100%" y2="44.3961589%" id="linearGradient-3">
            <stop stop-color="#6AA2B3" stop-opacity="0.976505888" offset="0%"></stop>
            <stop stop-color="#4568DC" offset="100%"></stop>
        </linearGradient>
        <linearGradient x1="35.5826823%" y1="13.3089193%" x2="71.8037342%" y2="86.1156432%" id="linearGradient-4">
            <stop stop-color="#00E8FF" offset="0%"></stop>
            <stop stop-color="#0076FF" offset="100%"></stop>
        </linearGradient>
    </defs>
    <g id="Symbols" stroke="none" stroke-width="1" fill="none" fill-rule="evenodd" opacity="0.899999976">
        <g id="tu1">
            <g id="Group-2" transform="translate(2.000000, 5.000000)">
                <path d="M125.714286,240 C59.4401157,240 5.71428571,186.27417 5.71428571,120 C5.71428571,53.72583 59.4401157,0 125.714286,0 C191.988456,0 245.714286,53.72583 245.714286,120 C245.714286,186.27417 191.988456,240 125.714286,240 Z" id="Oval" fill="#0076FF" style="mix-blend-mode: screen;" opacity="0.241847826"></path>
                <g id="Group" transform="translate(28.571429, 26.666667)">
                    <path d="M98.53293,187.619048 C147.359993,187.619048 186.942149,148.121218 186.942149,99.3981763 C186.942149,50.6751344 147.359993,11.177305 98.53293,11.177305 C49.7058667,11.177305 10.1237112,44.7023848 1.02665584,96.135842 C-1.91968987,112.794062 1.58610231,133.500846 10.1237112,146.750844 C27.29986,173.407481 66.6320189,187.619048 98.53293,187.619048 Z" id="Oval-2" fill="url(#linearGradient-1)" opacity="0.612149004"></path>
                    <path d="M98.6639118,187.619048 C147.418636,187.619048 186.942149,148.011739 186.942149,99.1536486 C186.942149,50.2955579 148.409503,13.6860518 98.2960859,3.20670322 C78.8096815,-0.868150074 56.826728,-3.4147513 37.1306473,10.6882497 C10.3856749,29.8384744 10.3856749,70.2116671 10.3856749,99.1536486 C10.3856749,116.090557 15.1352069,131.9158 23.3723701,145.364803 C38.897045,170.712291 66.8102633,187.619048 98.6639118,187.619048 Z" id="Oval-2" fill="url(#linearGradient-2)" opacity="0.420516304"></path>
                    <path d="M98.5175437,187.619048 C147.191431,187.619048 195.525715,142.859591 193.256434,90.8230617 C190.987153,38.7865321 147.191431,11.177305 98.5175437,11.177305 C49.8436566,11.177305 10.3856749,50.6751344 10.3856749,99.3981763 C10.3856749,116.288269 15.127332,132.06977 23.3508377,145.481598 C38.8497722,170.759023 66.7167095,187.619048 98.5175437,187.619048 Z" id="Oval-2" fill="url(#linearGradient-3)" opacity="0.328351449"></path>
                    <path d="M98.6639118,187.619048 C147.418636,187.619048 186.942149,148.121218 186.942149,99.3981763 C186.942149,50.6751344 147.418636,11.177305 98.6639118,11.177305 C49.9091879,11.177305 10.3856749,50.6751344 10.3856749,99.3981763 C10.3856749,116.288269 15.1352069,132.06977 23.3723701,145.481598 C38.897045,170.759023 66.8102633,187.619048 98.6639118,187.619048 Z" id="Oval-2" fill="url(#linearGradient-4)" opacity="0.794553895"></path>
                </g>
                <g id="Group-3" transform="translate(0.000000, 11.428571)" fill="#00CCFF">
                    <circle id="Oval-3" cx="6.19047619" cy="93.8095238" r="3.33333333"></circle>
                    <circle id="Oval-3" cx="101.428571" cy="16.6666667" r="3.33333333"></circle>
                    <circle id="Oval-3" cx="209.047619" cy="46.1904762" r="3.33333333"></circle>
                    <circle id="Oval-3" cx="44.2857143" cy="195.714286" r="2.38095238"></circle>
                    <circle id="Oval-3" cx="82.3809524" cy="22.3809524" r="2.38095238"></circle>
                    <circle id="Oval-3" cx="243.333333" cy="109.047619" r="2.38095238"></circle>
                    <circle id="Oval-3" cx="107.142857" cy="221.428571" r="2.38095238"></circle>
                    <circle id="Oval-3" cx="58.5714286" cy="216.666667" r="2.38095238"></circle>
                    <circle id="Oval-4" cx="1.42857143" cy="156.666667" r="1.42857143"></circle>
                    <circle id="Oval-4" cx="20.4761905" cy="122.380952" r="1.42857143"></circle>
                    <circle id="Oval-4" cx="32.8571429" cy="41.4285714" r="1.42857143"></circle>
                    <circle id="Oval-4" cx="219.52381" cy="93.8095238" r="1.42857143"></circle>
                    <circle id="Oval-4" cx="239.52381" cy="66.1904762" r="1.42857143"></circle>
                    <circle id="Oval-4" cx="144.285714" cy="1.42857143" r="1.42857143"></circle>
                    <circle id="Oval-4" cx="167.142857" cy="25.2380952" r="1.42857143"></circle>
                    <circle id="Oval-4" cx="170" cy="204.285714" r="1.42857143"></circle>
                    <circle id="Oval-4" cx="218.571429" cy="166.190476" r="1.42857143"></circle>
                    <circle id="Oval-4" cx="218.571429" cy="194.761905" r="1.42857143"></circle>
                    <circle id="Oval-4" cx="236.666667" cy="137.619048" r="1.42857143"></circle>
                    <circle id="Oval-4" cx="45.2380952" cy="53.8095238" r="1.42857143"></circle>
                </g>
            </g>
        </g>
    </g>
</svg>